<svg width="24" height="24" viewBox="0 0 24 24" fill="none" xmlns="http://www.w3.org/2000/svg">
<path d="M19.9986 9.99956C19.3131 8.82972 18.2031 7.96908 16.8994 7.5966C15.5957 7.22411 14.1986 7.36843 12.9986 7.99956V2.99956H10.9986V7.99956C9.79852 7.36843 8.40141 7.22411 7.0977 7.5966C5.794 7.96908 4.68402 8.82972 3.99855 9.99956C1.99855 12.9996 6.99855 21.9996 8.99855 21.9996C10.9986 21.9996 10.9986 20.9996 11.9986 20.9996C12.9986 20.9996 12.9986 21.9996 14.9986 21.9996C16.9986 21.9996 21.9986 12.9996 19.9986 9.99956ZM18.2486 13.3796C17.6286 15.8496 16.4086 18.1196 14.6986 19.9996C14.4986 19.9996 14.2686 19.8996 14.0986 19.7496C13.5042 19.269 12.7629 19.0068 11.9986 19.0068C11.2342 19.0068 10.4929 19.269 9.89855 19.7496C9.72855 19.8996 9.49855 19.9996 9.29855 19.9996C7.58494 18.125 6.36492 15.8534 5.74855 13.3896C5.49855 12.6596 5.44855 11.8696 5.65855 11.1196C5.94318 10.6121 6.35435 10.187 6.85203 9.88554C7.34972 9.58412 7.91696 9.4167 8.49855 9.39956C9.05855 9.40956 9.60855 9.53956 10.1086 9.78956L10.9986 10.2396H12.9986L13.8886 9.78956C14.3886 9.53956 14.9386 9.40956 15.4986 9.39956C16.6786 9.42956 17.7586 10.0796 18.3386 11.1096C18.5486 11.8596 18.4986 12.6496 18.2486 13.3796ZM10.9986 4.99956C5.37855 8.06956 4.10855 3.77956 4.10855 3.77956C4.10855 3.77956 6.76855 0.189562 10.9986 4.99956Z" fill="white"/>
</svg>
