<svg width="24" height="24" viewBox="0 0 24 24" fill="none" xmlns="http://www.w3.org/2000/svg">
<path d="M16.808 19C16.5787 19 16.3867 18.9227 16.232 18.768C16.0773 18.6133 16 18.4213 16 18.192V15C16 14.7713 16.0773 14.5797 16.232 14.425C16.3867 14.2703 16.5787 14.1927 16.808 14.192H18.192C18.4213 14.192 18.6133 14.2693 18.768 14.424C18.9227 14.5787 19 14.7707 19 15V18.192C19 18.4213 18.9227 18.6133 18.768 18.768C18.6133 18.9227 18.4213 19 18.192 19H16.808ZM11.308 19C11.0787 19 10.8867 18.9227 10.732 18.768C10.5773 18.6133 10.5 18.4213 10.5 18.192V5.808C10.5 5.57934 10.5773 5.38734 10.732 5.232C10.8867 5.07667 11.0787 4.99934 11.308 5H12.692C12.9213 5 13.1133 5.07734 13.268 5.232C13.4227 5.38667 13.5 5.57867 13.5 5.808V18.192C13.5 18.4213 13.4227 18.6133 13.268 18.768C13.1133 18.9227 12.9213 19 12.692 19H11.308ZM5.808 19C5.57867 19 5.38667 18.9227 5.232 18.768C5.07733 18.6133 5 18.4213 5 18.192V10.625C5 10.3863 5.07733 10.1907 5.232 10.038C5.38667 9.88534 5.57867 9.80867 5.808 9.808H7.192C7.42067 9.808 7.61267 9.88534 7.768 10.04C7.92333 10.1947 8.00067 10.3867 8 10.616V18.183C8 18.4217 7.92267 18.6173 7.768 18.77C7.61333 18.9227 7.42133 18.9993 7.192 19H5.808Z" fill="white"/>
</svg>
