<svg width="24" height="24" viewBox="0 0 24 24" fill="none" xmlns="http://www.w3.org/2000/svg">
<path d="M5.91994 5.91994C8.15794 3.68294 9.27694 2.56494 10.5859 2.19594C11.5105 1.93469 12.4894 1.93469 13.4139 2.19594C14.7229 2.56494 15.8419 3.68294 18.0789 5.92094C20.3159 8.15894 21.4349 9.27694 21.8039 10.5859C22.0652 11.5105 22.0652 12.4894 21.8039 13.4139C21.4349 14.7229 20.3169 15.8419 18.0789 18.0789C15.8409 20.3159 14.7229 21.4349 13.4139 21.8039C12.4894 22.0652 11.5105 22.0652 10.5859 21.8039C9.27694 21.4349 8.15794 20.3169 5.92094 18.0789C3.68394 15.8409 2.56494 14.7229 2.19594 13.4139C1.93469 12.4894 1.93469 11.5105 2.19594 10.5859C2.56494 9.27694 3.68294 8.15794 5.91994 5.91994Z" stroke="white" stroke-width="1.5" stroke-linecap="round" stroke-linejoin="round"/>
</svg>
