<svg width="24" height="24" viewBox="0 0 24 24" fill="none" xmlns="http://www.w3.org/2000/svg">
<path d="M21.4364 11.5001H21.0564V8.12012C21.0548 7.69095 20.8836 7.27982 20.5802 6.97635C20.2767 6.67288 19.8656 6.5017 19.4364 6.50012H18.8064V6.12012C18.8064 5.68914 18.6352 5.27582 18.3305 4.97107C18.0257 4.66632 17.6124 4.49512 17.1814 4.49512C16.7504 4.49512 16.3371 4.66632 16.0324 4.97107C15.7276 5.27582 15.5564 5.68914 15.5564 6.12012V11.5001H8.44641V6.12012C8.44641 5.68914 8.2752 5.27582 7.97045 4.97107C7.66571 4.66632 7.25238 4.49512 6.82141 4.49512C6.39043 4.49512 5.9771 4.66632 5.67236 4.97107C5.36761 5.27582 5.19641 5.68914 5.19641 6.12012V6.50012H4.56641C4.13676 6.50012 3.7247 6.6708 3.42089 6.9746C3.11708 7.27841 2.94641 7.69047 2.94641 8.12012V11.5001H2.56641C2.4338 11.5001 2.30662 11.5528 2.21285 11.6466C2.11908 11.7403 2.06641 11.8675 2.06641 12.0001C2.06641 12.1327 2.11908 12.2599 2.21285 12.3537C2.30662 12.4474 2.4338 12.5001 2.56641 12.5001H2.94641V15.8701C2.94509 16.0837 2.98602 16.2954 3.06684 16.4931C3.14766 16.6908 3.26678 16.8706 3.41734 17.0221C3.56791 17.1736 3.74694 17.2938 3.94414 17.3759C4.14134 17.4579 4.35282 17.5001 4.56641 17.5001H5.20141V17.8701C5.20141 18.3011 5.37261 18.7144 5.67736 19.0192C5.9821 19.3239 6.39543 19.4951 6.82641 19.4951C7.25738 19.4951 7.67071 19.3239 7.97545 19.0192C8.2802 18.7144 8.45141 18.3011 8.45141 17.8701V12.5001H15.5614V17.8701C15.5614 18.3011 15.7326 18.7144 16.0374 19.0192C16.3421 19.3239 16.7554 19.4951 17.1864 19.4951C17.6174 19.4951 18.0307 19.3239 18.3355 19.0192C18.6402 18.7144 18.8114 18.3011 18.8114 17.8701V17.5001H19.4414C19.872 17.4975 20.284 17.3246 20.5875 17.0192C20.8911 16.7138 21.0614 16.3007 21.0614 15.8701V12.5001H21.4414C21.574 12.5001 21.7012 12.4474 21.795 12.3537C21.8887 12.2599 21.9414 12.1327 21.9414 12.0001C21.9414 11.8675 21.8887 11.7403 21.795 11.6466C21.7012 11.5528 21.574 11.5001 21.4414 11.5001H21.4364ZM5.20141 16.5001H4.57141C4.48933 16.4995 4.40818 16.4826 4.33261 16.4506C4.25703 16.4186 4.1885 16.372 4.13092 16.3135C4.07335 16.255 4.02786 16.1858 3.99706 16.1097C3.96626 16.0336 3.95075 15.9522 3.95141 15.8701V8.12012C3.9522 7.95593 4.01777 7.79868 4.13387 7.68258C4.24997 7.56648 4.40722 7.50091 4.57141 7.50012H5.20141V16.5001ZM7.45141 17.8701C7.45036 18.0369 7.38365 18.1965 7.26572 18.3144C7.1478 18.4324 6.98817 18.4991 6.82141 18.5001C6.73933 18.4995 6.65818 18.4826 6.58261 18.4506C6.50703 18.4186 6.4385 18.372 6.38092 18.3135C6.32335 18.255 6.27786 18.1858 6.24706 18.1097C6.21626 18.0336 6.20075 17.9522 6.20141 17.8701V6.12012C6.20219 5.95593 6.26777 5.79868 6.38387 5.68258C6.49997 5.56648 6.65722 5.50091 6.82141 5.50012C6.98677 5.5001 7.14552 5.5651 7.26338 5.68109C7.38125 5.79708 7.44878 5.95477 7.45141 6.12012V17.8701ZM17.8114 17.8701C17.8114 18.0359 17.7456 18.1948 17.6283 18.3121C17.5111 18.4293 17.3522 18.4951 17.1864 18.4951C17.0206 18.4951 16.8617 18.4293 16.7445 18.3121C16.6273 18.1948 16.5614 18.0359 16.5614 17.8701V6.12012C16.5614 5.95436 16.6273 5.79539 16.7445 5.67818C16.8617 5.56097 17.0206 5.49512 17.1864 5.49512C17.3522 5.49512 17.5111 5.56097 17.6283 5.67818C17.7456 5.79539 17.8114 5.95436 17.8114 6.12012V17.8701ZM20.0614 15.8701C20.0621 15.9522 20.0466 16.0336 20.0157 16.1097C19.9849 16.1858 19.9395 16.255 19.8819 16.3135C19.8243 16.372 19.7558 16.4186 19.6802 16.4506C19.6046 16.4826 19.5235 16.4995 19.4414 16.5001H18.8114V7.50012H19.4414C19.6056 7.50091 19.7628 7.56648 19.8789 7.68258C19.995 7.79868 20.0606 7.95593 20.0614 8.12012V15.8701Z" fill="white"/>
</svg>
