<svg width="16" height="16" viewBox="0 0 16 16" fill="none" xmlns="http://www.w3.org/2000/svg">
<path d="M7.5 0C7.63542 0 7.7526 0.0494792 7.85156 0.148438C7.95052 0.247396 8 0.364583 8 0.5V6C8 6.27604 7.94792 6.53385 7.84375 6.77344C7.73958 7.01302 7.59635 7.22396 7.41406 7.40625C7.23177 7.58854 7.01823 7.73177 6.77344 7.83594C6.52865 7.9401 6.27083 7.99479 6 8V15.5C6 15.6354 5.95052 15.7526 5.85156 15.8516C5.7526 15.9505 5.63542 16 5.5 16C5.36458 16 5.2474 15.9505 5.14844 15.8516C5.04948 15.7526 5 15.6354 5 15.5V8C4.72396 8 4.46615 7.94792 4.22656 7.84375C3.98698 7.73958 3.77604 7.59635 3.59375 7.41406C3.41146 7.23177 3.26823 7.02083 3.16406 6.78125C3.0599 6.54167 3.00521 6.28125 3 6V0.5C3 0.364583 3.04948 0.247396 3.14844 0.148438C3.2474 0.0494792 3.36458 0 3.5 0C3.63542 0 3.7526 0.0494792 3.85156 0.148438C3.95052 0.247396 4 0.364583 4 0.5V6C4 6.14062 4.02604 6.27083 4.07812 6.39062C4.13021 6.51042 4.20052 6.61458 4.28906 6.70312C4.3776 6.79167 4.48438 6.86458 4.60938 6.92188C4.73438 6.97917 4.86458 7.00521 5 7V0.5C5 0.364583 5.04948 0.247396 5.14844 0.148438C5.2474 0.0494792 5.36458 0 5.5 0C5.63542 0 5.7526 0.0494792 5.85156 0.148438C5.95052 0.247396 6 0.364583 6 0.5V7C6.14062 7 6.27083 6.97396 6.39062 6.92188C6.51042 6.86979 6.61458 6.79948 6.70312 6.71094C6.79167 6.6224 6.86458 6.51562 6.92188 6.39062C6.97917 6.26562 7.00521 6.13542 7 6V0.5C7 0.364583 7.04948 0.247396 7.14844 0.148438C7.2474 0.0494792 7.36458 0 7.5 0ZM13 0V15.5C13 15.6354 12.9505 15.7526 12.8516 15.8516C12.7526 15.9505 12.6354 16 12.5 16C12.3646 16 12.2474 15.9505 12.1484 15.8516C12.0495 15.7526 12 15.6354 12 15.5V11C11.8073 11 11.599 11.0026 11.375 11.0078C11.151 11.013 10.9297 11.0104 10.7109 11C10.4922 10.9896 10.2786 10.9583 10.0703 10.9062C9.86198 10.8542 9.67969 10.7734 9.52344 10.6641C9.36719 10.5547 9.23958 10.4062 9.14062 10.2188C9.04167 10.0312 8.99479 9.79167 9 9.5V3.5C9 3.01562 9.09115 2.5625 9.27344 2.14062C9.45573 1.71875 9.70573 1.34896 10.0234 1.03125C10.3411 0.713542 10.7109 0.463542 11.1328 0.28125C11.5547 0.0989583 12.0104 0.00520833 12.5 0H13ZM12 1.04688C11.7083 1.10417 11.4427 1.20833 11.2031 1.35938C10.9635 1.51042 10.7526 1.69792 10.5703 1.92188C10.388 2.14583 10.2474 2.38802 10.1484 2.64844C10.0495 2.90885 10 3.19271 10 3.5V9.5C10 9.63542 10.0495 9.7526 10.1484 9.85156C10.2474 9.95052 10.3646 10 10.5 10H12V1.04688Z" fill="white"/>
</svg>
