<svg width="24" height="24" viewBox="0 0 24 24" fill="none" xmlns="http://www.w3.org/2000/svg">
<path d="M12.0017 3.00019H12.3947C11.1101 4.19389 10.2843 5.80003 10.061 7.53941C9.83772 9.27879 10.231 11.0414 11.1725 12.5209C12.1139 14.0004 13.5441 15.1032 15.2143 15.6377C16.8846 16.1721 18.6893 16.1043 20.3147 15.4462C19.6895 16.9507 18.6675 18.2572 17.3579 19.2264C16.0483 20.1957 14.5002 20.7912 12.8786 20.9496C11.2571 21.1079 9.623 20.8231 8.15062 20.1256C6.67825 19.428 5.42285 18.3439 4.51832 16.9888C3.6138 15.6337 3.09409 14.0585 3.01462 12.4312C2.93515 10.8038 3.29892 9.18548 4.06711 7.7487C4.8353 6.31192 5.9791 5.11061 7.3765 4.27292C8.7739 3.43523 10.3725 2.99258 12.0017 2.99219V3.00019Z" stroke="white" stroke-width="2" stroke-linecap="round" stroke-linejoin="round"/>
</svg>
