<svg width="25" height="25" viewBox="0 0 25 25" fill="none" xmlns="http://www.w3.org/2000/svg">
<path d="M21.5 6H0V19H25V6H21.5ZM24 15.6355C23.4333 15.788 22.9166 16.0867 22.5016 16.5016C22.0867 16.9166 21.788 17.4333 21.6355 18H3.3645C3.21202 17.4333 2.91334 16.9166 2.49837 16.5016C2.0834 16.0867 1.5667 15.788 1 15.6355V9.3645C1.5667 9.21202 2.0834 8.91334 2.49837 8.49837C2.91334 8.0834 3.21202 7.5667 3.3645 7H21.647C21.8131 7.55667 22.1152 8.06324 22.526 8.47402C22.9368 8.88481 23.4433 9.18688 24 9.353V15.6355ZM13.558 13.5275C13.443 13.4575 13.5 13.393 13 13.3335V14.782L13.274 14.731C13.645 14.6007 13.8307 14.3588 13.831 14.0055C13.831 13.801 13.7395 13.64 13.558 13.5275ZM11.3075 11.164C11.3075 11.387 11.4087 11.5537 11.611 11.664C11.689 11.7077 11.8185 11.7558 11.9995 11.8085V10.438C11.8632 10.4677 11.733 10.521 11.615 10.5955C11.41 10.7318 11.3075 10.9213 11.3075 11.164ZM12.5 7.5C10.0145 7.5 8 9.739 8 12.5C8 15.2605 10.0145 17.5 12.5 17.5C14.9855 17.5 17 15.2605 17 12.5C17 9.739 14.9855 7.5 12.5 7.5ZM14.427 15.327C14.0875 15.617 13.5 15.7945 13 15.8615V16.5H12V15.85C11.478 15.779 11.0455 15.7 10.706 15.4325C10.4893 15.2611 10.3136 15.0437 10.1914 14.7959C10.0693 14.5481 10.0039 14.2762 10 14H11.244C11.2845 14 11.3635 14.4005 11.4815 14.542C11.604 14.6875 11.778 14.7045 12 14.766V13.0635C11.3915 12.923 10.9675 12.7715 10.732 12.6085C10.3117 12.3208 10.1015 11.8708 10.1015 11.2585C10.1015 10.7002 10.3072 10.2362 10.7185 9.8665C11.0328 9.5845 11.46 9.41017 12 9.3435V8.5H13V9.37C13.5 9.4445 13.838 9.6765 14.15 9.908C14.6195 10.2565 14.95 10.5 14.9725 11.5H13.7195C13.696 11 13.445 10.784 13.1335 10.626C13.0862 10.5953 13.0415 10.5607 13 10.5225V12.094L13.451 12.181C13.9305 12.294 14.374 12.445 14.613 12.6335C14.985 12.9275 15.129 13.352 15.129 13.907C15.13 14.477 14.867 14.95 14.427 15.327Z" fill="white"/>
</svg>
