<svg width="24" height="24" viewBox="0 0 24 24" fill="none" xmlns="http://www.w3.org/2000/svg">
<path d="M12 5.57355L11.452 6.08555C11.5222 6.16065 11.607 6.22052 11.7013 6.26145C11.7956 6.30238 11.8972 6.3235 12 6.3235C12.1028 6.3235 12.2044 6.30238 12.2987 6.26145C12.393 6.22052 12.4778 6.16065 12.548 6.08555L12 5.57355ZM9.434 18.7956C7.984 17.6196 6.292 16.0766 4.968 14.3876C3.629 12.6806 2.75 10.9276 2.75 9.31755H1.25C1.25 11.4346 2.38 13.5196 3.787 15.3136C5.209 17.1266 6.997 18.7496 8.489 19.9606L9.434 18.7956ZM2.75 9.31755C2.75 6.41255 4.018 4.61755 5.586 4.00255C7.151 3.38955 9.34 3.82755 11.452 6.08555L12.548 5.06155C10.16 2.50755 7.349 1.70155 5.039 2.60555C2.732 3.50955 1.25 5.99155 1.25 9.31755H2.75ZM15.51 19.9596C17.003 18.7486 18.791 17.1256 20.213 15.3126C21.62 13.5186 22.75 11.4336 22.75 9.31555H21.25C21.25 10.9276 20.37 12.6796 19.032 14.3866C17.708 16.0756 16.016 17.6186 14.566 18.7946L15.51 19.9596ZM22.75 9.31555C22.75 5.99055 21.268 3.50855 18.96 2.60555C16.65 1.70055 13.84 2.50555 11.452 5.06055L12.548 6.08555C14.66 3.82755 16.849 3.38855 18.414 4.00155C19.982 4.61555 21.25 6.41155 21.25 9.31555H22.75ZM8.489 19.9606C9.759 20.9926 10.642 21.7496 12 21.7496V20.2496C11.277 20.2496 10.827 19.9256 9.434 18.7956L8.489 19.9606ZM14.566 18.7946C13.173 19.9246 12.723 20.2496 12 20.2496V21.7496C13.358 21.7496 14.241 20.9926 15.511 19.9606L14.566 18.7946Z" fill="white"/>
<path d="M18.5 9H16.5M16.5 9H14.5M16.5 9V7M16.5 9V11" stroke="white" stroke-width="1.5" stroke-linecap="round"/>
</svg>
