<svg width="24" height="24" viewBox="0 0 24 24" fill="none" xmlns="http://www.w3.org/2000/svg">
<path d="M14.5 4.5C14.5 5.16304 14.2366 5.79893 13.7678 6.26777C13.2989 6.73661 12.663 7 12 7C11.337 7 10.7011 6.73661 10.2322 6.26777C9.76339 5.79893 9.5 5.16304 9.5 4.5C9.5 3.83696 9.76339 3.20107 10.2322 2.73223C10.7011 2.26339 11.337 2 12 2C12.663 2 13.2989 2.26339 13.7678 2.73223C14.2366 3.20107 14.5 3.83696 14.5 4.5Z" stroke="white" stroke-width="1.5"/>
<path d="M3 16.9997L5.589 15.6917C5.71309 15.6289 5.81724 15.5327 5.88983 15.414C5.96241 15.2954 6.00055 15.1588 6 15.0197C6 12.0797 8.138 9.56574 11.007 9.08274C11.6644 8.97242 12.3356 8.97242 12.993 9.08274C15.863 9.56574 18 12.0797 18 15.0197C18 15.3037 18.16 15.5647 18.411 15.6917L21 16.9997" stroke="white" stroke-width="1.5" stroke-linecap="round" stroke-linejoin="round"/>
<path d="M9.5 16L8.458 17.389L8.395 17.473C8.13178 17.8055 7.76968 18.0457 7.361 18.159L7.259 18.185L5.774 18.556C5.2668 18.6824 4.81654 18.9751 4.49501 19.3872C4.17349 19.7993 3.99922 20.3073 4 20.83C4 21.476 4.524 22 5.171 22H6.727C7.327 22 7.627 22 7.917 21.966C8.59726 21.8861 9.25383 21.6672 9.846 21.323C10.099 21.176 10.339 20.996 10.818 20.636L11 20.5M11 20.5L13 19M11 20.5L13.54 21.452C14.15 21.681 14.454 21.795 14.769 21.869C14.9323 21.907 15.0967 21.937 15.262 21.959C15.583 22 15.909 22 16.56 22H18.829C18.9828 22.0001 19.1351 21.9699 19.2773 21.9111C19.4194 21.8523 19.5486 21.7661 19.6573 21.6573C19.7661 21.5486 19.8523 21.4194 19.9111 21.2773C19.9699 21.1351 20.0001 20.9828 20 20.829C20.0006 20.3064 19.8262 19.7987 19.5047 19.3868C19.1832 18.9749 18.733 18.6824 18.226 18.556L16.741 18.186L16.639 18.159C16.2303 18.0457 15.8682 17.8055 15.605 17.473L15.542 17.389L14.5 16" stroke="white" stroke-width="1.5" stroke-linecap="round" stroke-linejoin="round"/>
</svg>
