<svg width="24" height="24" viewBox="0 0 24 24" fill="none" xmlns="http://www.w3.org/2000/svg">
<path fill-rule="evenodd" clip-rule="evenodd" d="M11.0972 6.0125C11.7042 5.94 12.4437 5.945 13.1582 6.286C13.9112 6.645 14.4202 7.271 14.7482 8.024C15.0872 8.8005 15.4177 9.183 15.6502 9.369C15.8642 9.5415 16.0462 9.589 16.2102 9.598C16.6002 9.619 16.9767 9.4485 17.4397 9.225L17.6102 9.1435C17.7887 9.05673 17.9827 9.00623 18.1808 8.99494C18.3789 8.98365 18.5773 9.0118 18.7645 9.07774C18.9517 9.14368 19.1239 9.24612 19.2713 9.3791C19.4186 9.51209 19.538 9.67299 19.6227 9.85247C19.7074 10.032 19.7556 10.2265 19.7646 10.4247C19.7735 10.623 19.7431 10.821 19.675 11.0074C19.6068 11.1938 19.5024 11.3649 19.3677 11.5106C19.233 11.6564 19.0707 11.7739 18.8902 11.8565L18.7887 11.9065L18.7757 11.9135C18.3687 12.1175 17.2877 12.66 16.0497 12.5935C15.3189 12.5548 14.6137 12.3111 14.0147 11.8905L14.2897 11.324L13.8397 11.106L13.4977 11.47C13.6596 11.6228 13.8321 11.7633 14.0147 11.8905L13.0187 13.943L12.8312 13.6985L12.4342 14.0025L12.8842 14.221L13.0187 13.943C13.3447 14.366 13.6742 14.7835 13.9552 15.1405L13.5632 15.4505L13.9562 15.1415L14.0782 15.2965C14.2382 15.5005 14.3822 15.683 14.4912 15.825L14.4957 15.8305L14.5057 15.843C14.5807 15.9405 14.7172 16.118 14.7967 16.257C14.9147 16.4635 14.9802 16.688 15.0052 16.774L15.0062 16.7775C15.0437 16.9065 15.0797 17.0525 15.1137 17.1985C15.1822 17.493 15.2562 17.854 15.3282 18.2185C15.3797 18.4785 15.4302 18.7425 15.4787 18.9935C15.5702 19.4675 15.6517 19.8895 15.7147 20.176C15.7959 20.5626 15.7213 20.9656 15.5071 21.2975C15.2929 21.6294 14.9564 21.8634 14.5708 21.9487C14.1851 22.0341 13.7813 21.9638 13.4471 21.7532C13.1129 21.5426 12.8752 21.2087 12.7857 20.824C12.7132 20.4965 12.6197 20.011 12.5257 19.5255L12.5247 19.518C12.4777 19.2745 12.4302 19.029 12.3847 18.7995C12.3252 18.4912 12.2608 18.1838 12.1917 17.8775C12.178 17.818 12.1635 17.7587 12.1482 17.6995L12.2047 17.7745L12.6052 17.475L12.1912 17.5955L12.1252 17.615L12.1327 17.6405L12.1142 17.655C12.0162 17.528 11.8827 17.3575 11.7207 17.1515L11.5997 16.9985V16.9975C11.2982 16.615 10.9297 16.1475 10.5682 15.6775C10.1597 15.147 9.74225 14.59 9.42875 14.1325C9.27525 13.9085 9.12375 13.6755 9.00975 13.4655C8.93997 13.3385 8.87947 13.2067 8.82875 13.071C8.78922 12.9617 8.76009 12.8488 8.74174 12.734C8.72175 12.609 8.69424 12.3475 8.78325 12.039C8.84125 11.8385 9.12375 11.045 9.42175 10.2185C9.45608 10.1805 9.49158 10.1425 9.52824 10.1045C9.66224 9.9645 9.79975 9.835 9.94075 9.716C10.1701 9.51882 10.4235 9.35133 10.6947 9.2175L10.4782 8.767L10.0082 8.5965L9.47925 10.058L9.42175 10.2185C9.01575 10.662 8.72475 11.098 8.49475 11.4435L8.49225 11.4475C8.42575 11.5475 8.36125 11.645 8.30125 11.7295C8.18875 11.8928 8.04499 12.0322 7.87829 12.1396C7.71158 12.247 7.52523 12.3203 7.33002 12.3552C7.13482 12.3901 6.93462 12.3859 6.74103 12.343C6.54743 12.3 6.36427 12.2191 6.20215 12.1049C6.04003 11.9907 5.90216 11.8455 5.79651 11.6777C5.69087 11.5099 5.61956 11.3228 5.58669 11.1272C5.55383 10.9316 5.56006 10.7315 5.60504 10.5384C5.65003 10.3452 5.73286 10.1629 5.84875 10.002C5.87025 9.972 5.90275 9.9225 5.95224 9.847L5.95574 9.842C6.19225 9.484 6.69074 8.7285 7.36374 8.027C8.18124 7.176 9.42675 6.211 11.0972 6.0125ZM12.1322 17.64L12.1482 17.6995L12.1142 17.654L12.1322 17.64ZM12.7277 7.188C12.2557 6.963 11.7327 6.943 11.2152 7.005C9.87125 7.1645 8.82574 7.9475 8.08524 8.7195C7.47824 9.3515 7.02125 10.0425 6.78725 10.3975L6.78275 10.404C6.73875 10.471 6.69775 10.533 6.66625 10.5775C6.58986 10.6859 6.55967 10.8202 6.58232 10.9509C6.60496 11.0815 6.67859 11.1979 6.787 11.2743C6.8954 11.3506 7.02971 11.3808 7.16038 11.3582C7.29104 11.3355 7.40736 11.2619 7.48375 11.1535C7.53525 11.0805 7.59275 10.994 7.66225 10.8895L7.66625 10.883C7.91625 10.507 8.27925 9.9615 8.80625 9.4115C9.22475 8.976 9.70975 8.581 10.2617 8.316C10.3513 8.27303 10.4516 8.25769 10.5498 8.27192C10.6481 8.28616 10.7399 8.32934 10.8135 8.39596C10.8872 8.46257 10.9393 8.5496 10.9633 8.64596C10.9873 8.74232 10.9821 8.84364 10.9482 8.937L10.5822 9.947C10.2072 10.9845 9.80475 12.107 9.74375 12.3165C9.71981 12.4017 9.71503 12.4912 9.72974 12.5785C9.73924 12.6385 9.75525 12.692 9.77025 12.7335C9.80025 12.8185 9.84374 12.9055 9.88774 12.9865C9.97775 13.1515 10.1062 13.3515 10.2537 13.567C10.5507 14.0005 10.9547 14.539 11.3612 15.067C11.7187 15.5325 12.0837 15.996 12.3857 16.379L12.5062 16.5325C12.6744 16.7457 12.841 16.96 13.0062 17.1755C13.0419 17.2238 13.0684 17.2772 13.0857 17.3355C13.1087 17.414 13.1357 17.5205 13.1657 17.6505C13.2262 17.9105 13.2947 18.245 13.3657 18.6055C13.4117 18.8375 13.4597 19.0845 13.5062 19.3275V19.3285C13.6017 19.8225 13.6927 20.295 13.7622 20.6075C13.7909 20.737 13.8698 20.8498 13.9816 20.9211C14.0934 20.9924 14.229 21.0164 14.3585 20.9877C14.488 20.9591 14.6008 20.8802 14.6721 20.7684C14.7434 20.6566 14.7674 20.521 14.7387 20.3915C14.6536 19.9918 14.5734 19.5911 14.4982 19.1895L14.4967 19.182C14.4478 18.925 14.3978 18.6681 14.3467 18.4115C14.2829 18.0814 14.2138 17.7524 14.1397 17.4245C14.1118 17.3008 14.0804 17.178 14.0457 17.056C14.0178 16.9511 13.9786 16.8495 13.9287 16.753C13.8595 16.6448 13.7844 16.5405 13.7037 16.4405L13.6987 16.4345C13.5937 16.2975 13.4537 16.1195 13.2922 15.9145M13.2922 15.9145L13.1722 15.761H13.1712L13.1707 15.76L13.1697 15.7585C12.8682 15.3755 12.5077 14.918 12.1537 14.4575L12.0372 14.306C11.9808 14.2324 11.946 14.1445 11.9366 14.0523C11.9273 13.96 11.9438 13.8669 11.9842 13.7835L13.3902 10.887C13.4245 10.8164 13.4748 10.7549 13.5373 10.7073C13.5997 10.6598 13.6724 10.6277 13.7495 10.6134C13.8267 10.5992 13.9061 10.6034 13.9814 10.6255C14.0566 10.6477 14.1256 10.6872 14.1827 10.741C14.2537 10.808 14.3257 10.8707 14.3987 10.929C14.9577 11.3775 15.5452 11.5645 16.1037 11.5945C17.0622 11.646 17.9382 11.2145 18.3402 11.0125L18.3442 11.0105L18.4637 10.9515C18.5245 10.9244 18.5793 10.8854 18.6248 10.8368C18.6703 10.7882 18.7056 10.7311 18.7287 10.6686C18.7519 10.6062 18.7623 10.5398 18.7594 10.4733C18.7565 10.4068 18.7404 10.3416 18.712 10.2814C18.6836 10.2212 18.6434 10.1673 18.5939 10.1229C18.5443 10.0784 18.4864 10.0443 18.4235 10.0225C18.3607 10.0007 18.294 9.99169 18.2276 9.99599C18.1612 10.0003 18.0963 10.0178 18.0367 10.0475L17.8742 10.1255L17.8382 10.143C17.4182 10.3455 16.8262 10.632 16.1567 10.596C15.7952 10.5765 15.4107 10.459 15.0242 10.149C14.6317 9.834 14.2157 9.303 13.8317 8.423C13.5747 7.833 13.2127 7.419 12.7277 7.188M8.80375 14.686C8.89437 14.6728 8.98687 14.6848 9.07117 14.7206C9.15546 14.7564 9.2283 14.8146 9.28174 14.889L10.7092 16.873C10.7561 16.9381 10.7866 17.0135 10.7982 17.0929C10.8097 17.1722 10.802 17.2532 10.7757 17.329L10.5307 18.033C10.4089 18.3833 10.1616 18.6761 9.83657 18.8548C9.51153 19.0335 9.13182 19.0854 8.77075 19.0005L5.40675 18.2095C5.21231 18.1671 5.02827 18.0864 4.86533 17.9721C4.70239 17.8578 4.56382 17.7123 4.45769 17.544C4.35155 17.3756 4.27998 17.1878 4.24713 16.9916C4.21429 16.7953 4.22083 16.5944 4.26637 16.4007C4.31192 16.207 4.39556 16.0242 4.51242 15.8632C4.62928 15.7021 4.77703 15.5659 4.94706 15.4624C5.11708 15.359 5.30599 15.2905 5.50277 15.2608C5.69955 15.2311 5.90027 15.2409 6.09325 15.2895L8.14125 15.7705L8.40375 15.0165C8.43388 14.9302 8.4871 14.8538 8.55762 14.7956C8.62815 14.7374 8.71327 14.6992 8.80375 14.686ZM9.03174 16.2545L8.93775 16.525C8.89714 16.6417 8.81473 16.7393 8.70642 16.7989C8.59811 16.8584 8.47158 16.8757 8.35124 16.8475L5.86474 16.263C5.73565 16.2326 5.59978 16.2548 5.48702 16.3246C5.37427 16.3944 5.29386 16.5062 5.2635 16.6353C5.23313 16.7643 5.25529 16.9002 5.3251 17.013C5.39491 17.1257 5.50665 17.2061 5.63575 17.2365L8.99975 18.028C9.12008 18.0562 9.24661 18.0389 9.35492 17.9794C9.46323 17.9198 9.54564 17.8222 9.58625 17.7055L9.74575 17.247L9.03174 16.2545ZM16.0002 6C16.3981 6 16.7796 5.84196 17.0609 5.56066C17.3422 5.27936 17.5002 4.89782 17.5002 4.5C17.5002 4.10218 17.3422 3.72064 17.0609 3.43934C16.7796 3.15804 16.3981 3 16.0002 3C15.6024 3 15.2209 3.15804 14.9396 3.43934C14.6583 3.72064 14.5002 4.10218 14.5002 4.5C14.5002 4.89782 14.6583 5.27936 14.9396 5.56066C15.2209 5.84196 15.6024 6 16.0002 6ZM16.0002 7C16.6633 7 17.2992 6.73661 17.768 6.26777C18.2369 5.79893 18.5002 5.16304 18.5002 4.5C18.5002 3.83696 18.2369 3.20107 17.768 2.73223C17.2992 2.26339 16.6633 2 16.0002 2C15.3372 2 14.7013 2.26339 14.2325 2.73223C13.7636 3.20107 13.5002 3.83696 13.5002 4.5C13.5002 5.16304 13.7636 5.79893 14.2325 6.26777C14.7013 6.73661 15.3372 7 16.0002 7Z" fill="white"/>
</svg>
