<svg width="16" height="16" viewBox="0 0 16 16" fill="none" xmlns="http://www.w3.org/2000/svg">
<path d="M15.09 12.79C15.2171 12.6911 15.3184 12.5629 15.3853 12.4164C15.4522 12.2699 15.4827 12.1094 15.4742 11.9486C15.4658 11.7877 15.4186 11.6313 15.3368 11.4926C15.2549 11.354 15.1407 11.2371 15.004 11.152L15 5.33L14 6V11.15C13.8647 11.2349 13.7516 11.351 13.6704 11.4886C13.5891 11.6262 13.542 11.7812 13.533 11.9407C13.524 12.1002 13.5533 12.2596 13.6186 12.4055C13.6838 12.5513 13.7831 12.6794 13.908 12.779L13.53 13.281C13.1938 13.7087 13.0076 14.2351 13 14.779V16.001H13.815C14.0108 16.001 14.201 15.9357 14.3555 15.8154C14.51 15.6951 14.6199 15.5268 14.668 15.337L14.999 14.001V16.001H15.999V14.791C15.9903 14.2444 15.8027 13.7158 15.465 13.286L15.09 12.79ZM8 0L0 4L8 9L16 4L8 0Z" fill="white"/>
<path d="M8 9.99992L3 6.66992V8.37992C3 9.28992 5.94 11.9999 8 11.9999C10.06 11.9999 13 9.28992 13 8.37992V6.66992L8 9.99992Z" fill="white"/>
</svg>
