<svg width="24" height="24" viewBox="0 0 24 24" fill="none" xmlns="http://www.w3.org/2000/svg">
<path d="M4.616 20C4.15533 20 3.771 19.846 3.463 19.538C3.155 19.23 3.00067 18.8453 3 18.384V8.616C3 8.15534 3.15433 7.771 3.463 7.463C3.77167 7.155 4.15567 7.00067 4.615 7H9V5.615C9 5.155 9.15433 4.77067 9.463 4.462C9.77167 4.15334 10.156 3.99934 10.616 4H13.385C13.845 4 14.2293 4.154 14.538 4.462C14.8467 4.77 15.0007 5.15434 15 5.615V7H19.385C19.845 7 20.229 7.15434 20.537 7.463C20.845 7.77167 20.9993 8.156 21 8.616V18.385C21 18.845 20.8457 19.2293 20.537 19.538C20.2283 19.8467 19.8443 20.0007 19.385 20H4.616ZM4.616 19H19.385C19.5383 19 19.6793 18.936 19.808 18.808C19.9367 18.68 20.0007 18.5387 20 18.384V8.616C20 8.462 19.936 8.32067 19.808 8.192C19.68 8.06334 19.539 7.99934 19.385 8H4.615C4.46167 8 4.32067 8.064 4.192 8.192C4.06333 8.32 3.99933 8.46134 4 8.616V18.385C4 18.5383 4.064 18.6793 4.192 18.808C4.32 18.9367 4.461 19.0007 4.615 19M10 7H14V5.615C14 5.46167 13.936 5.32067 13.808 5.192C13.68 5.06334 13.539 4.99934 13.385 5H10.615C10.4617 5 10.3207 5.064 10.192 5.192C10.0633 5.32 9.99933 5.461 10 5.615V7Z" fill="white"/>
</svg>
